<mxfile host="app.diagrams.net" modified="2023-02-19T18:14:09.105Z" agent="5.0 (Windows NT 10.0; Win64; x64) AppleWebKit/537.36 (KHTML, like Gecko) Chrome/110.0.0.0 Safari/537.36" etag="GhBWk-Dm1zjrTwz9kJAj" version="20.8.20" type="github">
  <diagram name="Page-1" id="3e8102d1-ef87-2e61-34e1-82d9a586fe2e">
    <mxGraphModel dx="1232" dy="1106" grid="1" gridSize="10" guides="1" tooltips="1" connect="1" arrows="1" fold="1" page="1" pageScale="1" pageWidth="1100" pageHeight="850" background="none" math="0" shadow="0">
      <root>
        <mxCell id="0" />
        <mxCell id="1" parent="0" />
        <mxCell id="70666756c84bb93c-1" value="" style="ellipse;whiteSpace=wrap;html=1;rounded=0;shadow=0;comic=0;strokeWidth=1;fontFamily=Verdana;fontSize=14;strokeColor=none;fillColor=#0069D1;" parent="1" vertex="1">
          <mxGeometry x="280" y="145" width="500" height="500" as="geometry" />
        </mxCell>
        <mxCell id="70666756c84bb93c-2" value="EMotionDirection" style="ellipse;whiteSpace=wrap;html=1;rounded=0;shadow=0;comic=0;strokeWidth=1;fontFamily=Verdana;fontSize=22;strokeColor=none;fillColor=#ffffff;fontColor=#0069D1;fontStyle=1;verticalAlign=middle;labelBackgroundColor=none;spacingBottom=24;spacingRight=-14;" parent="1" vertex="1">
          <mxGeometry x="405" y="270" width="250" height="250" as="geometry" />
        </mxCell>
        <mxCell id="_kV6WizKQQ6WAu_UwO6W-6" value="&lt;br&gt;" style="endArrow=classic;html=1;rounded=0;strokeWidth=2;startArrow=none;" edge="1" parent="1" source="_kV6WizKQQ6WAu_UwO6W-17">
          <mxGeometry width="50" height="50" relative="1" as="geometry">
            <mxPoint x="210" y="395" as="sourcePoint" />
            <mxPoint x="850" y="395" as="targetPoint" />
          </mxGeometry>
        </mxCell>
        <mxCell id="_kV6WizKQQ6WAu_UwO6W-8" value="x" style="edgeLabel;html=1;align=center;verticalAlign=middle;resizable=0;points=[];fontSize=22;" vertex="1" connectable="0" parent="_kV6WizKQQ6WAu_UwO6W-6">
          <mxGeometry x="0.9406" y="-1" relative="1" as="geometry">
            <mxPoint x="4" y="-26" as="offset" />
          </mxGeometry>
        </mxCell>
        <mxCell id="_kV6WizKQQ6WAu_UwO6W-7" value="" style="endArrow=classic;html=1;rounded=0;strokeWidth=2;fontSize=12;" edge="1" parent="1">
          <mxGeometry width="50" height="50" relative="1" as="geometry">
            <mxPoint x="532.5" y="690" as="sourcePoint" />
            <mxPoint x="527.5" y="90" as="targetPoint" />
          </mxGeometry>
        </mxCell>
        <mxCell id="_kV6WizKQQ6WAu_UwO6W-10" value="Y" style="edgeLabel;html=1;align=center;verticalAlign=middle;resizable=0;points=[];fontSize=22;fontStyle=0" vertex="1" connectable="0" parent="_kV6WizKQQ6WAu_UwO6W-7">
          <mxGeometry x="0.9666" y="-2" relative="1" as="geometry">
            <mxPoint x="18" y="10" as="offset" />
          </mxGeometry>
        </mxCell>
        <mxCell id="_kV6WizKQQ6WAu_UwO6W-12" value="" style="endArrow=none;html=1;strokeWidth=2;rounded=0;fontSize=12;dashed=1;" edge="1" parent="1">
          <mxGeometry width="50" height="50" relative="1" as="geometry">
            <mxPoint x="200" y="550" as="sourcePoint" />
            <mxPoint x="840" y="240" as="targetPoint" />
            <Array as="points">
              <mxPoint x="530" y="395" />
            </Array>
          </mxGeometry>
        </mxCell>
        <mxCell id="_kV6WizKQQ6WAu_UwO6W-13" value="" style="endArrow=none;dashed=1;html=1;rounded=0;strokeWidth=2;fontSize=12;" edge="1" parent="1">
          <mxGeometry width="50" height="50" relative="1" as="geometry">
            <mxPoint x="370" y="690" as="sourcePoint" />
            <mxPoint x="690" y="100" as="targetPoint" />
            <Array as="points" />
          </mxGeometry>
        </mxCell>
        <mxCell id="_kV6WizKQQ6WAu_UwO6W-14" value="" style="endArrow=none;dashed=1;html=1;rounded=0;strokeWidth=2;fontSize=12;" edge="1" parent="1">
          <mxGeometry width="50" height="50" relative="1" as="geometry">
            <mxPoint x="210" y="240" as="sourcePoint" />
            <mxPoint x="840" y="550" as="targetPoint" />
            <Array as="points">
              <mxPoint x="530" y="395" />
            </Array>
          </mxGeometry>
        </mxCell>
        <mxCell id="_kV6WizKQQ6WAu_UwO6W-15" value="" style="endArrow=none;dashed=1;html=1;rounded=0;strokeWidth=2;fontSize=12;" edge="1" parent="1">
          <mxGeometry width="50" height="50" relative="1" as="geometry">
            <mxPoint x="380" y="100" as="sourcePoint" />
            <mxPoint x="680" y="690" as="targetPoint" />
          </mxGeometry>
        </mxCell>
        <mxCell id="_kV6WizKQQ6WAu_UwO6W-19" value="&lt;font size=&quot;1&quot; style=&quot;&quot;&gt;&lt;b style=&quot;font-size: 20px;&quot;&gt;Left&lt;/b&gt;&lt;/font&gt;" style="text;html=1;align=center;verticalAlign=middle;resizable=0;points=[];autosize=1;fontSize=12;labelBackgroundColor=none;labelBorderColor=none;fontStyle=0;shadow=0;rounded=0;fontColor=#FBFFF0;" vertex="1" parent="1">
          <mxGeometry x="500" y="570" width="60" height="40" as="geometry" />
        </mxCell>
        <mxCell id="_kV6WizKQQ6WAu_UwO6W-21" value="&lt;font style=&quot;font-size: 20px;&quot;&gt;Right&lt;/font&gt;" style="text;html=1;align=center;verticalAlign=middle;resizable=0;points=[];autosize=1;fontSize=20;labelBackgroundColor=none;labelBorderColor=none;fontStyle=1;shadow=0;rounded=0;fontColor=#FBFFF0;" vertex="1" parent="1">
          <mxGeometry x="495" y="190" width="70" height="40" as="geometry" />
        </mxCell>
        <mxCell id="_kV6WizKQQ6WAu_UwO6W-22" value="" style="endArrow=none;html=1;rounded=0;strokeWidth=2;startArrow=none;" edge="1" parent="1" source="_kV6WizKQQ6WAu_UwO6W-20" target="_kV6WizKQQ6WAu_UwO6W-17">
          <mxGeometry width="50" height="50" relative="1" as="geometry">
            <mxPoint x="210" y="395" as="sourcePoint" />
            <mxPoint x="850" y="395" as="targetPoint" />
          </mxGeometry>
        </mxCell>
        <mxCell id="_kV6WizKQQ6WAu_UwO6W-17" value="&lt;font style=&quot;font-size: 20px;&quot;&gt;Forward&lt;/font&gt;" style="text;html=1;align=center;verticalAlign=middle;resizable=0;points=[];autosize=1;fontSize=12;labelBackgroundColor=none;labelBorderColor=none;fontStyle=1;shadow=0;rounded=0;fontColor=#FBFFF0;" vertex="1" parent="1">
          <mxGeometry x="665" y="375" width="100" height="40" as="geometry" />
        </mxCell>
        <mxCell id="_kV6WizKQQ6WAu_UwO6W-24" value="" style="endArrow=none;html=1;rounded=0;strokeWidth=2;" edge="1" parent="1" target="_kV6WizKQQ6WAu_UwO6W-20">
          <mxGeometry width="50" height="50" relative="1" as="geometry">
            <mxPoint x="210" y="395" as="sourcePoint" />
            <mxPoint x="670" y="395" as="targetPoint" />
          </mxGeometry>
        </mxCell>
        <mxCell id="_kV6WizKQQ6WAu_UwO6W-20" value="&lt;font style=&quot;font-size: 20px;&quot;&gt;Backward&lt;/font&gt;" style="text;html=1;align=center;verticalAlign=middle;resizable=0;points=[];autosize=1;fontSize=20;labelBackgroundColor=none;labelBorderColor=none;fontStyle=1;shadow=0;rounded=0;fontColor=#FBFFF0;" vertex="1" parent="1">
          <mxGeometry x="285" y="375" width="120" height="40" as="geometry" />
        </mxCell>
        <mxCell id="_kV6WizKQQ6WAu_UwO6W-25" value="&lt;font style=&quot;font-size: 19px;&quot;&gt;&lt;span&gt;ForwardRight&lt;/span&gt;&lt;/font&gt;" style="text;html=1;align=center;verticalAlign=middle;resizable=0;points=[];autosize=1;strokeColor=none;fillColor=none;fontSize=18;fontColor=#CFCFCF;fontStyle=0" vertex="1" parent="1">
          <mxGeometry x="605" y="250" width="140" height="40" as="geometry" />
        </mxCell>
        <mxCell id="_kV6WizKQQ6WAu_UwO6W-26" value="&lt;font style=&quot;font-size: 19px;&quot;&gt;&lt;span&gt;ForwardLeft&lt;/span&gt;&lt;/font&gt;" style="text;html=1;align=center;verticalAlign=middle;resizable=0;points=[];autosize=1;strokeColor=none;fillColor=none;fontSize=18;fontColor=#CFCFCF;fontStyle=0" vertex="1" parent="1">
          <mxGeometry x="610" y="500" width="120" height="40" as="geometry" />
        </mxCell>
        <mxCell id="_kV6WizKQQ6WAu_UwO6W-27" value="&lt;font style=&quot;font-size: 19px;&quot;&gt;&lt;span&gt;BackwardLeft&lt;/span&gt;&lt;/font&gt;" style="text;html=1;align=center;verticalAlign=middle;resizable=0;points=[];autosize=1;strokeColor=none;fillColor=none;fontSize=18;fontColor=#CFCFCF;fontStyle=0" vertex="1" parent="1">
          <mxGeometry x="320" y="490" width="140" height="40" as="geometry" />
        </mxCell>
        <mxCell id="_kV6WizKQQ6WAu_UwO6W-28" value="&lt;font style=&quot;font-size: 19px;&quot;&gt;&lt;span&gt;BackwardRight&lt;/span&gt;&lt;/font&gt;" style="text;html=1;align=center;verticalAlign=middle;resizable=0;points=[];autosize=1;strokeColor=none;fillColor=none;fontSize=18;fontColor=#CFCFCF;fontStyle=0" vertex="1" parent="1">
          <mxGeometry x="315" y="240" width="150" height="40" as="geometry" />
        </mxCell>
      </root>
    </mxGraphModel>
  </diagram>
</mxfile>
